Simulation
nRows=28
nColumns=15
endheader
time  TH_x TH_y TH_z SC_y  SC_z  SC_x  AC_y  AC_z  AC_x  GH_y  GH_z  GH_yy  EL_x  PS_y
5.745  0.000000  0.000000  0.000000  -51.34009291646929  15.716045149699696  11.563308158530248  45.58198962438492  11.851740563882222  10.780666576766444  37.359998441340615  62.311655488866414  -45.6818100110183  18.5957984121261  120.000000
5.80245  0.000000  0.000000  0.000000  -50.20753266682158  15.160115895186708  9.293688750590862  45.044381570237555  11.390519770754251  10.107601495588286  38.25203271680117  61.11123832093801  -45.95860243904071  18.88932720223783  120.000000
5.8599  0.000000  0.000000  0.000000  -48.81992194191562  14.459390731963431  6.506237552111277  44.364101450093145  10.91289706034058  9.533643601047768  39.21680846751561  59.357019651153166  -46.058850562289805  19.282791372802482  120.000000
5.91735  0.000000  0.000000  0.000000  -47.185425275638664  13.582727437948071  3.3244594956335485  43.540503025154806  10.496194667008298  9.104573280900855  40.146374843245624  57.017101093925895  -45.95252310593647  19.686093956562075  120.000000
5.9748  0.000000  0.000000  0.000000  -45.32687739650442  12.51417948842696  -0.10269372978168384  42.586389744339925  10.236871333034102  8.848363338874844  40.95584579342684  54.09169423203234  -45.64126087317143  19.989751703116625  120.000000
6.03225  0.000000  0.000000  0.000000  -43.293440253322586  11.25718102131668  -3.614002317177676  41.541956625423886  10.227292792379696  8.777335292511719  41.60065287245996  50.629814373261695  -45.16197314994852  20.099153109494004  120.000000
6.089700000000001  0.000000  0.000000  0.000000  -41.168925707618435  9.837686998852224  -7.054199874008178  40.476423196531165  10.531162217721436  8.893777428016561  42.09032757980633  46.73877838921449  -44.583216494188825  19.963092268167703  120.000000
6.14715  0.000000  0.000000  0.000000  -39.07096864811656  8.303747896583719  -10.293835575982374  39.47496072041129  11.167263287160976  9.1929037241034  42.493695914535564  42.57967867547441  -43.99700037025579  19.582389785741817  120.000000
6.2046  0.000000  0.000000  0.000000  -37.1379837497229  6.726758569491084  -13.242616824427492  38.61892585346319  12.107590837967715  9.6618624247704  42.93839254106554  38.34705797228016  -43.51550850757543  18.9968254667871  120.000000
6.26205  0.000000  0.000000  0.000000  -35.497927208434895  5.195393429334634  -15.851343355296889  37.96694001548356  13.2880043109062  10.27872560941367  43.60644721911485  34.23189280227897  -43.270799661245675  18.26762090066279  120.000000
6.3195  0.000000  0.000000  0.000000  -34.238321050306006  3.796136136782052  -18.100585840821175  37.54173942301763  14.621904045937056  11.015270319654384  44.720684625175615  30.381924168416077  -43.41339651557126  17.468102113980915  120.000000
6.37695  0.000000  0.000000  0.000000  -33.38905854736811  2.602172130695059  -19.988257213336244  37.333768577093046  16.01838193142768  11.83740557490921  46.51178177399314  26.886677726889705  -44.09878595285198  16.67985415908164  120.000000
6.4344  0.000000  0.000000  0.000000  -32.927751957176824  1.667274084060245  -21.52000567984485  37.312843543711416  17.395641055094654  12.70878208814613  49.17491454859592  23.79134382106746  -45.46182203879231  15.986574728818143  120.000000
6.49185  0.000000  0.000000  0.000000  -32.79571336344686  1.0202665537997888  -22.706059455687107  37.437059377820425  18.68663199668269  13.593817738393724  52.831116988491715  21.11362632961099  -47.59241893759874  15.463478096681683  120.000000
6.549300000000001  0.000000  0.000000  0.000000  -32.91493868034643  0.6565760286305214  -23.564399048792204  37.661050934325814  19.84577567144976  14.453368211581465  57.4901199682089  18.857175917565066  -50.51398578693385  15.160939305201257  120.000000
6.60675  0.000000  0.000000  0.000000  -33.20201113871985  0.5386350042962653  -24.121110914595878  37.93582348425086  20.84731201772141  15.249329182255547  63.02655594244862  17.01151279239938  -54.16288903320022  15.09310763112649  120.000000
6.6642  0.000000  0.000000  0.000000  -33.57607850330964  0.6099132178665532  -24.411629142720773  38.21416115913433  21.682106044336443  15.946719451735168  69.1807739122254  15.546177232231976  -58.375781787863644  15.241776984748613  120.000000
6.72165  0.000000  0.000000  0.000000  -33.97257934261096  0.8085205387193388  -24.482728556475642  38.46425240839643  22.354043812224937  16.51309820949079  75.6034827262005  14.416261425205736  -62.90997714733439  15.567644357712172  120.000000
6.7791  0.000000  0.000000  0.000000  -34.34580014813386  1.074460580296705  -24.383222864713005  38.66864200215799  22.86778586581047  16.92821041841303  81.93522590814331  13.563963312662887  -67.49059148710803  16.013753774078037  120.000000
6.83655  0.000000  0.000000  0.000000  -34.67502741911959  1.355526921071027  -24.15359577477596  38.82192673050291  23.223658309348046  17.18711072623248  87.88567801741914  12.928807103250124  -71.87568387242061  16.505322926244734  120.000000
6.894  0.000000  0.000000  0.000000  -34.947521793589424  1.616782261358019  -23.827621618334895  38.936566379367974  23.427298731731717  17.29108606712988  93.27343030430447  12.453876576346488  -75.89835009753614  16.956781795809434  120.000000
6.95145  0.000000  0.000000  0.000000  -35.15100047200543  1.8401648191096942  -23.432226978248494  39.03355124840756  23.49184853921373  17.24841507011545  98.02785006904303  12.088539851452264  -79.48164758008559  17.288670522219846  120.000000
7.008900000000001  0.000000  0.000000  0.000000  -35.281088103599686  2.0186414874213643  -22.98527360867745  39.13094799774987  23.43560965400255  17.075909665902934  102.15961796679976  11.792561275055734  -82.6255997838058  17.454588235498402  120.000000
7.06635  0.000000  0.000000  0.000000  -35.34775243319402  2.151487031220515  -22.496134426727927  39.23659016458029  23.279118994776873  16.796840462234844  105.720961805108  11.537257307263724  -85.3786502374711  17.462922698984222  120.000000
7.1238  0.000000  0.000000  0.000000  -35.3745383975139  2.2411776984877694  -21.96798092733802  39.34759744274482  23.043266423370845  16.436730234789795  108.777115792817  11.303342228374522  -87.81235344973338  17.374114592012035  120.000000
7.18125  0.000000  0.000000  0.000000  -35.38550604700913  2.2956121039968536  -21.402105181533365  39.46234915011246  22.75168670591452  16.013836709306126  111.38360941217398  11.080433148714928  -89.9929483053242  17.27305416872902  120.000000
7.2387  0.000000  0.000000  0.000000  -35.3997600678675  2.327523089259128  -20.79974851160576  39.586240360411075  22.427416516411192  15.539368703270306  113.57347322909501  10.865565334353057  -91.95900478201801  17.234513975532533  120.000000
7.29615  0.000000  0.000000  0.000000  -35.42734983284546  2.347740155471802  -20.161496944210963  39.72484818995353  22.084439560876984  15.027121720949031  115.37709537443241  10.654682219773346  -93.72914743413757  17.29533309701042  120.000000
